<?xml version="1.0" standalone="no"?><!DOCTYPE svg PUBLIC "-//W3C//DTD SVG 1.1//EN" "http://www.w3.org/Graphics/SVG/1.1/DTD/svg11.dtd"><svg t="1638359134106" class="icon" viewBox="0 0 1024 1024" version="1.1" xmlns="http://www.w3.org/2000/svg" p-id="3185" xmlns:xlink="http://www.w3.org/1999/xlink" width="48" height="48"><defs><style type="text/css"></style></defs><path d="M512 85.333333c235.648 0 426.666667 191.018667 426.666667 426.666667s-191.018667 426.666667-426.666667 426.666667S85.333333 747.648 85.333333 512 276.352 85.333333 512 85.333333z m255.317333 229.973334c9.173333-31.786667-20.778667-61.696-52.608-52.565334l-4.352 1.493334L408.746667 384.853333l-4.522667 2.133334a42.666667 42.666667 0 0 0-16.64 16.298666l-2.645333 5.333334-120.661334 301.696-1.493333 4.352c-9.130667 31.829333 20.778667 61.781333 52.608 52.608l4.352-1.493334 301.653333-120.661333 4.522667-2.133333a42.666667 42.666667 0 0 0 16.682667-16.256l2.56-5.376 120.746666-301.696 1.450667-4.352zM512 426.666667a85.333333 85.333333 0 1 1 0 170.666666 85.333333 85.333333 0 0 1 0-170.666666z" p-id="3186" fill="#0288d1"></path></svg>